<svg xmlns="http://www.w3.org/2000/svg" viewBox="0 0 512 512" width="480px" height="480px"><path fill="#D6E5E5" d="M387.8 260.1c-1.9-23-16.7-43.5-36.1-55.3-21.3-13-46.4-18.4-71.1-20.5-23.9-2-48.3-2-72.2-.6-43.1 2.5-89.6 23.2-98.3 69.6-.2 1.2-.7 2.1-1.4 2.7.1 27 8.9 54.8 28.6 73.9 10.1 9.7 22.4 16.9 36 20.2 15.4 3.8 31.9 3.1 47.6 3.3 26.4.4 53.2-.1 79-5.6 23.6-5.1 47.8-14.4 65.2-31.9C379.8 301.2 389.5 281.2 387.8 260.1zM180.5 249.9c.1-.8.3-1.4.7-2-.5-12.1 16.2-21.9 27.8-16.4 2.8 1.3 4.9 3.4 6.4 6 3.4 2.9 5.7 7.1 5.8 11.8.2 7.4-4.4 13.1-11.1 15.8C198.3 269.7 178.1 266.2 180.5 249.9zM299 322.6c-13.7 9-30.4 14.9-46.9 14.7-8.6-.2-16.8-1-25-3.9-4.2-1.6-8.7-3.2-12.4-5.9-1.5-1.1-2.9-2.3-4.5-3.4-.3-.2-.6-.5-.9-.7-4.4 1.7-9.7-4.3-6-9 4.8-6.1 12.1-.3 16.5 3.1 6.6 5 16.1 8 24.3 8.5 17.5 1.1 34-2.9 48.7-12.5C298.8 309.6 305 318.7 299 322.6zM305.6 265.8c-11.7 4.7-31.9 1.2-29.5-15.2.1-.8.3-1.4.7-2-.5-12.1 16.2-21.9 27.8-16.4 2.8 1.3 4.9 3.4 6.4 6 3.4 2.9 5.7 7.1 5.8 11.8C316.9 257.4 312.4 263.1 305.6 265.8zM408.9 223.3c-3.6-9-10.9-15.3-20.6-16.8-4.9-.8-9.6-.3-14.6 0-.5 0-1 .1-1.5.1.4.4.8.7 1.2 1.1 13.8 13.8 23.8 31.8 25.4 51.3 1.4-1 2.7-2.1 3.9-3.3 2.5-2.6 5.2-5.4 7.1-8.5C413.7 240.9 411.5 229.8 408.9 223.3zM355.6 113.6c-7.6-.7-16.4 2.2-23 6.7-.1.2-.2.4-.3.6-3.8 8 0 14.8 8 17.9 6.7 2.6 17 2.1 21.1-4.9C365.8 126.5 366.3 114.6 355.6 113.6zM93.7 218.9c-2.8 7.7-5.4 20.6 2.6 26.3 1 .7 2.3 1.5 3.6 2.4 0 0 .1-.1.1-.1 4.3-18.9 14.6-34.3 28.4-46.1C112.9 196.2 99.2 203.7 93.7 218.9z"/><path fill="#BCBCBC" d="M474.2,157.3c-16.1-46.6-46.7-87.1-91.3-109.6c-50.9-25.7-111-28.1-166.4-19.3c-49.8,7.9-102.3,25.9-139.6,61.1c-19.6,18.5-34.7,40.9-42.7,66.8c-8,26-10.4,53.1-12.1,80.1c-0.1,1.1-0.4,2-1,2.7c0,0.2,0.1,0.5,0.1,0.8c0,52.9-1.1,108.3,30.1,153.9c25.3,37.1,64.5,61.5,107.2,73.7c88,25.2,194.2,9.6,264.9-50.8C497.5,353.5,504.3,244.4,474.2,157.3z M419.1,252.9c-4,6-12,17.1-20.5,18.1c-4.2,46.5-47.1,75.8-89.6,86c-25.7,6.1-52.3,7.6-78.6,7.5c-23.5-0.1-48.9,1.4-71.2-7.5c-39.1-15.5-59.9-55.8-61.5-96.2c-1-0.7-1.8-1.6-2.2-2.8c-0.1,0-0.1-0.1-0.2-0.1c-0.9-0.6-1.7-1.3-2.6-1.9c-1.6-1-3.2-2-4.6-3.2c-4.2-3.4-6.4-9.3-7.5-14.4c-2.1-10.1,0.8-21.7,6-30.5c10.1-17.4,28-22.7,46.7-16.3c2,0.7,3,2.1,3.2,3.6c12.9-9,28-15.3,43.7-18.7c20.1-4.4,40.7-4.5,61.2-4.6c0.5,0,0.9,0,1.4,0c-1-3.6,0.2-7.8,1.6-11.5c2.6-6.7,4.8-13.6,6.6-20.6c4.1-15.8,7-31.8,9.5-47.8c0.3-2.2,2.6-4.5,5-4.4c21.8,0.4,42.4,13.2,60.6,24.1c9.9-7,23.6-11.6,34.8-8.2c15.6,4.7,18.1,23.5,9.9,36.2c-7.7,11.9-23.7,14.4-36.1,8.8c-10.6-4.8-16.2-14.6-14.5-25c-0.9-0.9-1.5-2.1-1.5-3.3c-7.9-4.7-15.8-9.2-24.2-13.1c-7.5-3.5-15.6-7-24-8.1c-2.1,12.8-4.4,25.6-7.5,38.2c-1.6,6.6-3.4,13.2-5.5,19.6c-0.8,2.5-1.8,4.9-2.8,7.4c-0.4,1.1-0.9,2.2-1.2,3.4c-0.2,0.8-0.2,1.2-0.2,1.3c1,1,1.5,2.1,1.5,3.2c17.6,0.3,35.3,1.6,52.6,5c18.7,3.7,38.1,10,54,21c0.5-0.3,1-0.6,1.6-0.8c5.2-1.6,11.2-2.1,16.6-2.2c15.3-0.2,29.7,5.6,37.2,19.6C422.5,225,426,242.5,419.1,252.9z"/><path d="M487.8,164.2c-14.2-46.9-40.9-88.3-82-115.7c-46.4-31-105.3-38.4-159.8-34.4C194.3,17.9,141.4,32,97.4,60c-21.6,13.8-40.9,31.9-55,53.4c-14.9,22.7-22.5,48.8-26.6,75.4c-2.3,15.1-3.4,30.3-4.4,45.6c-0.1,0.9,0.1,1.8,0.4,2.6c-0.9,0.9-1.5,2.2-1.5,3.8c0,30.1-0.6,60.4,4.6,90.2c4.8,27.1,15.2,52.9,31.6,75.1c29.2,39.5,73.5,63.3,120.4,75c88.9,22.2,194.2,3.7,264.5-57.1C505.5,360,514.7,253.2,487.8,164.2z M423.4,416.7c-70.8,60.4-176.9,76-264.9,50.8c-42.7-12.2-81.9-36.6-107.2-73.7c-31.1-45.6-30.1-101-30.1-153.9c0-0.3,0-0.5-0.1-0.8c0.5-0.7,0.9-1.6,1-2.7c1.7-27,4.1-54.1,12.1-80.1c7.9-25.9,23.1-48.3,42.7-66.8c37.3-35.2,89.8-53.2,139.6-61.1c55.5-8.8,115.5-6.4,166.4,19.3c44.6,22.5,75.1,63.1,91.3,109.6C504.3,244.4,497.5,353.5,423.4,416.7z"/><path d="M417,214.6c-7.5-14-21.9-19.8-37.2-19.6c-5.4,0.1-11.4,0.5-16.6,2.2c-0.6,0.2-1.1,0.5-1.6,0.8c-15.9-11-35.3-17.3-54-21c-17.3-3.4-35-4.7-52.6-5c-0.1-1.1-0.5-2.3-1.5-3.2c0-0.1,0-0.5,0.2-1.3c0.2-1.2,0.7-2.3,1.2-3.4c1-2.5,1.9-4.9,2.8-7.4c2.2-6.4,3.9-13,5.5-19.6c3.1-12.6,5.5-25.4,7.5-38.2c8.3,1.1,16.5,4.6,24,8.1c8.3,3.9,16.3,8.4,24.2,13.1c0,1.2,0.6,2.4,1.5,3.3c-1.6,10.5,3.9,20.2,14.5,25c12.4,5.6,28.4,3,36.1-8.8c8.2-12.7,5.7-31.4-9.9-36.2c-11.2-3.4-24.9,1.2-34.8,8.2c-18.2-10.9-38.8-23.7-60.6-24.1c-2.3,0-4.6,2.2-5,4.4c-2.5,16.1-5.4,32.1-9.5,47.8c-1.8,7-4,13.8-6.6,20.6c-1.5,3.7-2.6,7.9-1.6,11.5c-0.5,0-0.9,0-1.4,0c-20.5,0.1-41.1,0.2-61.2,4.6c-15.7,3.5-30.8,9.8-43.7,18.7c-0.2-1.5-1.1-2.9-3.2-3.6c-18.7-6.4-36.6-1.1-46.7,16.3c-5.1,8.8-8,20.4-6,30.5c1.1,5.1,3.3,11,7.5,14.4c1.5,1.2,3.1,2.2,4.6,3.2c0.9,0.6,1.8,1.2,2.6,1.9c0.1,0.1,0.1,0.1,0.2,0.1c0.4,1.1,1.2,2.1,2.2,2.8c1.6,40.4,22.4,80.7,61.5,96.2c22.2,8.8,47.6,7.4,71.2,7.5c26.3,0.1,52.9-1.4,78.6-7.5c42.5-10.2,85.3-39.5,89.6-86c8.5-1,16.5-12.1,20.5-18.1C426,242.5,422.5,225,417,214.6z M332.4,121c0.1-0.2,0.2-0.4,0.3-0.6c6.6-4.6,15.4-7.5,23-6.7c10.7,1,10.2,12.9,5.8,20.4c-4.1,6.9-14.4,7.4-21.1,4.9C332.4,135.8,328.6,128.9,332.4,121z M99.9,247.6c-1.3-0.9-2.6-1.7-3.6-2.4c-8-5.7-5.3-18.6-2.6-26.3c5.5-15.2,19.2-22.8,34.8-17.5c-13.8,11.8-24.2,27.2-28.4,46.1C100,247.5,100,247.6,99.9,247.6z M365.2,315.9c-17.3,17.5-41.5,26.8-65.2,31.9c-25.9,5.6-52.7,6-79,5.6c-15.8-0.2-32.2,0.4-47.6-3.3c-13.6-3.3-26-10.5-36-20.2c-19.7-19.1-28.5-46.9-28.6-73.9c0.7-0.6,1.1-1.5,1.4-2.7c8.7-46.5,55.3-67.2,98.3-69.6c23.9-1.4,48.3-1.4,72.2,0.6c24.6,2.1,49.7,7.5,71.1,20.5c19.4,11.8,34.2,32.3,36.1,55.3C389.5,281.2,379.8,301.2,365.2,315.9z M409.8,247.2c-1.9,3.1-4.6,5.9-7.1,8.5c-1.2,1.2-2.5,2.3-3.9,3.3c-1.6-19.5-11.6-37.5-25.4-51.3c-0.4-0.4-0.8-0.7-1.2-1.1c0.5,0,1-0.1,1.5-0.1c4.9-0.3,9.6-0.7,14.6,0c9.7,1.5,17,7.8,20.6,16.8C411.5,229.8,413.7,240.9,409.8,247.2z"/><path fill="#EF4823" d="M215.4 237.4c-1.5-2.5-3.7-4.7-6.4-6-11.6-5.4-28.3 4.3-27.8 16.4-.3.5-.5 1.2-.7 2-2.4 16.4 17.9 19.9 29.5 15.2 6.7-2.7 11.3-8.4 11.1-15.8C221 244.5 218.8 240.3 215.4 237.4zM311 238.1c-1.5-2.5-3.7-4.7-6.4-6-11.6-5.4-28.3 4.3-27.8 16.4-.3.5-.5 1.2-.7 2-2.4 16.4 17.9 19.9 29.5 15.2 6.7-2.7 11.3-8.4 11.1-15.8C316.7 245.2 314.4 241 311 238.1z"/><path d="M292.9,313.5c-14.8,9.6-31.2,13.6-48.7,12.5c-8.2-0.5-17.8-3.5-24.3-8.5c-4.4-3.4-11.7-9.2-16.5-3.1c-3.7,4.7,1.6,10.6,6,9c0.3,0.2,0.6,0.4,0.9,0.7c1.5,1.1,3,2.3,4.5,3.4c3.7,2.7,8.1,4.3,12.4,5.9c8.1,3,16.3,3.8,25,3.9c16.6,0.3,33.2-5.7,46.9-14.7C305,318.7,298.8,309.6,292.9,313.5z"/></svg>